<svg xmlns="http://www.w3.org/2000/svg" width="118" height="118" viewBox="0 0 118 118">
  <g id="Group_2252" data-name="Group 2252" transform="translate(-129 -385)">
    <circle id="Ellipse_26" data-name="Ellipse 26" cx="59" cy="59" r="59" transform="translate(129 385)" fill="rgba(243,116,35,0.96)"/>
    <path id="Icon_awesome-check" data-name="Icon awesome-check" d="M21.737,51.635.937,30.715a3.232,3.232,0,0,1,0-4.552l4.525-4.552a3.187,3.187,0,0,1,4.526,0L24,35.7,54.012,5.52a3.187,3.187,0,0,1,4.526,0l4.525,4.552a3.232,3.232,0,0,1,0,4.552l-36.8,37.012A3.187,3.187,0,0,1,21.737,51.635Z" transform="translate(156.125 414.509)" fill="#fff"/>
  </g>
</svg>
